<svg xmlns="http://www.w3.org/2000/svg" width="1200" height="800" viewBox="0 0 1200 800">
<rect width="100%" height="100%" fill="#111"/>
<text x="12" y="24" fill="#fff" font-size="14">Segment 68 — 17 polygons (v10 1)</text>
<path d="M36.5,44.7 L73.8,64.7 L116.6,94.5 L164.9,127.3 L216.1,162.0 L266.7,196.2 L317.8,223.1 L363.4,246.3 L407.3,267.7 L452.8,286.0 L504.5,316.3 L555.6,353.0 L603.0,386.0 L643.8,408.1 L676.5,428.2 L700.1,445.9 L731.0,470.2 L767.6,493.2 L802.6,517.4 L838.7,540.5 L882.0,567.7 L925.5,596.1 L969.0,623.1 L1005.4,649.7 L1043.4,677.7 L1080.0,702.5 L1110.5,721.7 L1134.6,733.8 L1153.1,721.2 L1163.5,695.1" fill="none" stroke="#888" stroke-width="1.5" stroke-dasharray="4,3"/>
<path d="M129.4,80.9 L133.6,83.8 L137.8,86.8 L124.6,116.1 L120.3,113.4 L115.9,110.6 Z" fill="#e6194b55" stroke="#e6194b" stroke-width="1.2"/>
<text x="129.4" y="80.9" fill="#e6194b" font-size="10">f0</text>
<line x1="137.79657271413822" y1="86.8296603737216" x2="172.655772577065" y2="111.30321036751513" stroke="#ff0" stroke-width="2" stroke-dasharray="6,4"/>
<text x="155.2" y="99.1" fill="#ff0" font-size="9">gap 16.5m</text>
<path d="M172.7,111.3 L176.7,114.6 L180.8,117.9 L168.4,145.5 L164.3,142.2 L160.2,138.9 Z" fill="#3cb44b55" stroke="#3cb44b" stroke-width="1.2"/>
<text x="172.7" y="111.3" fill="#3cb44b" font-size="10">f1</text>
<line x1="180.78296528314166" y1="117.938972454608" x2="238.37386191628005" y2="160.71436373447648" stroke="#ff0" stroke-width="2" stroke-dasharray="6,4"/>
<text x="209.6" y="139.3" fill="#ff0" font-size="9">gap 27.7m</text>
<path d="M238.4,160.7 L242.5,163.9 L246.7,167.0 L234.5,194.0 L230.4,190.8 L226.2,187.7 Z" fill="#4363d855" stroke="#4363d8" stroke-width="1.2"/>
<text x="238.4" y="160.7" fill="#4363d8" font-size="10">f2</text>
<line x1="246.6605009639516" y1="166.9969055716257" x2="312.15111973527496" y2="209.1531544399577" stroke="#ff0" stroke-width="2" stroke-dasharray="6,4"/>
<text x="279.4" y="188.1" fill="#ff0" font-size="9">gap 30.8m</text>
<path d="M312.2,209.2 L316.0,213.4 L319.8,217.5 L325.0,217.6 L315.6,245.4 L310.9,243.7 L306.5,240.5 L302.3,237.4 Z" fill="#f5823155" stroke="#f58231" stroke-width="1.2"/>
<text x="312.2" y="209.2" fill="#f58231" font-size="10">f3</text>
<line x1="324.9822452361113" y1="217.60819729479545" x2="507.77233530599426" y2="301.538477025985" stroke="#ff0" stroke-width="2" stroke-dasharray="6,4"/>
<text x="416.4" y="259.6" fill="#ff0" font-size="9">gap 80.0m</text>
<path d="M507.8,301.5 L513.9,303.0 L518.2,305.8 L506.4,330.5 L502.1,327.7 L497.1,329.0 Z" fill="#911eb455" stroke="#911eb4" stroke-width="1.2"/>
<text x="507.8" y="301.5" fill="#911eb4" font-size="10">f4</text>
<line x1="518.2142963925961" y1="305.7931935265903" x2="602.1321487595113" y2="361.0082491939547" stroke="#ff0" stroke-width="2" stroke-dasharray="6,4"/>
<text x="560.2" y="333.4" fill="#ff0" font-size="9">gap 39.2m</text>
<path d="M602.1,361.0 L606.9,362.7 L611.7,364.4 L597.3,395.6 L593.1,392.7 L588.8,389.8 Z" fill="#42d4f455" stroke="#42d4f4" stroke-width="1.2"/>
<text x="602.1" y="361.0" fill="#42d4f4" font-size="10">f5</text>
<line x1="611.7275019757475" y1="364.4476366017642" x2="684.0069418378752" y2="409.86113236719433" stroke="#ff0" stroke-width="2" stroke-dasharray="6,4"/>
<text x="647.9" y="387.2" fill="#ff0" font-size="9">gap 33.8m</text>
<path d="M684.0,409.9 L689.6,413.5 L693.9,416.3 L698.1,419.1 L702.9,421.0 L707.8,422.7 L712.1,426.3 L714.2,433.5 L718.4,436.5 L722.6,439.4 L726.9,442.4 L731.1,445.3 L736.1,446.7 L741.2,448.1 L743.0,451.6 L746.1,457.2 L733.2,488.1 L730.1,482.5 L726.0,477.2 L721.4,475.1 L716.9,472.6 L712.6,469.7 L708.4,466.8 L704.1,463.8 L699.9,460.9 L695.9,457.4 L692.2,453.9 L687.6,451.7 L683.3,448.9 L679.0,446.1 L673.9,445.0 L669.8,444.6 Z" fill="#f032e655" stroke="#f032e6" stroke-width="1.2"/>
<text x="684.0" y="409.9" fill="#f032e6" font-size="10">f6</text>
<line x1="746.110982923446" y1="457.2490672147679" x2="764.2731446621779" y2="470.5649932041385" stroke="#ff0" stroke-width="2" stroke-dasharray="6,4"/>
<text x="755.2" y="463.9" fill="#ff0" font-size="9">gap 8.7m</text>
<path d="M764.3,470.6 L768.5,473.4 L772.8,476.3 L760.5,505.7 L756.1,503.2 L751.7,500.7 Z" fill="#bfef4555" stroke="#bfef45" stroke-width="1.2"/>
<text x="764.3" y="470.6" fill="#bfef45" font-size="10">f7</text>
<line x1="772.8181809099264" y1="476.2808722119976" x2="784.4027668538716" y2="484.3268955279383" stroke="#ff0" stroke-width="2" stroke-dasharray="6,4"/>
<text x="778.6" y="480.3" fill="#ff0" font-size="9">gap 5.2m</text>
<path d="M784.4,484.3 L788.7,487.1 L793.0,489.9 L779.2,520.0 L774.9,517.0 L770.7,514.0 Z" fill="#fabed455" stroke="#fabed4" stroke-width="1.2"/>
<text x="784.4" y="484.3" fill="#fabed4" font-size="10">f8</text>
<line x1="792.9987289682274" y1="489.9273364147493" x2="808.8134332807427" y2="494.98551510863666" stroke="#ff0" stroke-width="2" stroke-dasharray="6,4"/>
<text x="800.9" y="492.5" fill="#ff0" font-size="9">gap 6.5m</text>
<path d="M808.8,495.0 L812.5,497.4 L816.9,500.0 L821.3,502.6 L807.0,536.3 L802.6,533.6 L797.6,532.6 L792.8,529.8 Z" fill="#46999055" stroke="#469990" stroke-width="1.2"/>
<text x="808.8" y="495.0" fill="#469990" font-size="10">f9</text>
<line x1="821.2892181348327" y1="502.6271469974825" x2="844.3765978480924" y2="516.633397970475" stroke="#ff0" stroke-width="2" stroke-dasharray="6,4"/>
<text x="832.8" y="509.6" fill="#ff0" font-size="9">gap 10.6m</text>
<path d="M844.4,516.6 L848.1,520.5 L852.0,524.1 L856.4,526.8 L860.7,529.4 L865.1,532.2 L851.9,563.8 L847.6,561.0 L843.2,558.2 L838.9,555.5 L834.5,553.1 L830.1,550.3 Z" fill="#dcbeff55" stroke="#dcbeff" stroke-width="1.2"/>
<text x="844.4" y="516.6" fill="#dcbeff" font-size="10">f10</text>
<line x1="865.0685422485221" y1="532.1636734437577" x2="915.7158649094395" y2="564.4535854281547" stroke="#ff0" stroke-width="2" stroke-dasharray="6,4"/>
<text x="890.4" y="548.3" fill="#ff0" font-size="9">gap 23.3m</text>
<path d="M915.7,564.5 L920.0,567.2 L924.4,569.8 L928.8,572.4 L933.2,574.9 L936.4,579.3 L924.1,609.2 L919.3,607.0 L914.9,604.4 L910.5,601.8 L906.2,599.0 L902.0,596.1 Z" fill="#9A632455" stroke="#9A6324" stroke-width="1.2"/>
<text x="915.7" y="564.5" fill="#9A6324" font-size="10">f11</text>
<line x1="936.4126681637462" y1="579.3179628784824" x2="957.2775913473882" y2="594.0381549018487" stroke="#ff0" stroke-width="2" stroke-dasharray="6,4"/>
<text x="946.8" y="586.7" fill="#ff0" font-size="9">gap 9.9m</text>
<path d="M957.3,594.0 L961.6,596.8 L965.9,599.5 L970.4,601.8 L975.0,604.0 L980.3,607.5 L984.4,610.7 L988.4,614.1 L974.7,642.2 L970.5,639.3 L966.1,636.7 L962.4,634.5 L958.1,631.6 L953.9,628.7 L949.6,625.8 L945.3,623.0 Z" fill="#80000055" stroke="#800000" stroke-width="1.2"/>
<text x="957.3" y="594.0" fill="#800000" font-size="10">f12</text>
<line x1="988.3907317480321" y1="614.0983394157385" x2="1014.2869376485124" y2="631.4384941273617" stroke="#ff0" stroke-width="2" stroke-dasharray="6,4"/>
<text x="1001.3" y="622.8" fill="#ff0" font-size="9">gap 12.1m</text>
<path d="M1014.3,631.4 L1018.2,635.3 L1022.0,639.1 L1026.2,642.1 L1030.5,645.0 L1017.6,671.1 L1013.4,668.2 L1009.1,665.3 L1004.8,662.4 L1000.7,659.5 Z" fill="#aaffc355" stroke="#aaffc3" stroke-width="1.2"/>
<text x="1014.3" y="631.4" fill="#aaffc3" font-size="10">f13</text>
<line x1="1030.4592213341323" y1="644.9684472216493" x2="1052.3288069899675" y2="659.5974780858958" stroke="#ff0" stroke-width="2" stroke-dasharray="6,4"/>
<text x="1041.4" y="652.3" fill="#ff0" font-size="9">gap 10.2m</text>
<path d="M1052.3,659.6 L1055.6,663.1 L1059.3,667.1 L1047.5,693.4 L1043.6,689.8 L1039.4,686.0 Z" fill="#80800055" stroke="#808000" stroke-width="1.2"/>
<text x="1052.3" y="659.6" fill="#808000" font-size="10">f14</text>
<line x1="1059.3371520467458" y1="667.0794453414064" x2="1088.4445954104708" y2="683.7376496104943" stroke="#ff0" stroke-width="2" stroke-dasharray="6,4"/>
<text x="1073.9" y="675.4" fill="#ff0" font-size="9">gap 13.2m</text>
<path d="M1088.4,683.7 L1091.9,687.0 L1095.9,690.5 L1082.6,722.5 L1079.1,717.6 L1075.5,712.5 Z" fill="#ffd8b155" stroke="#ffd8b1" stroke-width="1.2"/>
<text x="1088.4" y="683.7" fill="#ffd8b1" font-size="10">f15</text>
<line x1="1095.9120018211793" y1="690.544481129609" x2="1117.209426067338" y2="705.5989152692368" stroke="#ff0" stroke-width="2" stroke-dasharray="6,4"/>
<text x="1106.6" y="698.1" fill="#ff0" font-size="9">gap 10.1m</text>
<path d="M1117.2,705.6 L1120.3,708.1 L1124.5,711.3 L1128.8,714.2 L1133.1,717.0 L1137.4,719.7 L1125.6,755.3 L1121.8,750.9 L1117.6,747.8 L1113.4,744.6 L1109.9,739.1 L1105.7,733.2 Z" fill="#00007555" stroke="#000075" stroke-width="1.2"/>
<text x="1117.2" y="705.6" fill="#000075" font-size="10">f16</text>
</svg>