<svg xmlns="http://www.w3.org/2000/svg" width="1200" height="800" viewBox="0 0 1200 800">
<rect width="100%" height="100%" fill="#111"/>
<text x="12" y="24" fill="#fff" font-size="14">Segment 44 — 12 polygons (v10 1)</text>
<path d="M1154.2,68.3 L1106.0,96.5 L1051.5,127.6 L996.3,160.3 L955.6,189.7 L921.4,210.1 L893.8,228.7 L869.1,244.0 L838.7,261.7 L806.8,282.7 L781.7,296.1 L761.6,305.9 L741.8,315.1 L715.4,333.2 L677.6,355.5 L629.9,384.9 L581.1,417.6 L535.7,449.6 L485.2,481.0 L428.8,516.2 L371.3,548.0 L321.3,574.6 L283.2,596.0 L255.1,612.4 L231.0,627.2 L202.7,644.2 L172.8,661.2 L132.8,685.5 L88.7,708.2 L45.8,722.8" fill="none" stroke="#888" stroke-width="1.5" stroke-dasharray="4,3"/>
<path d="M1066.5,132.2 L1061.1,136.7 L1055.7,141.1 L1049.9,143.5 L1037.7,97.7 L1043.6,94.0 L1049.0,89.5 L1054.4,85.1 Z" fill="#e6194b55" stroke="#e6194b" stroke-width="1.2"/>
<text x="1066.5" y="132.2" fill="#e6194b" font-size="10">f0</text>
<line x1="1049.9087674941875" y1="143.4646356245247" x2="1004.4439853510432" y2="168.5793629643906" stroke="#ff0" stroke-width="2" stroke-dasharray="6,4"/>
<text x="1027.2" y="156.0" fill="#ff0" font-size="9">gap 15.9m</text>
<path d="M1004.4,168.6 L999.2,171.4 L993.6,175.1 L979.5,131.5 L984.7,126.6 L991.9,121.9 Z" fill="#3cb44b55" stroke="#3cb44b" stroke-width="1.2"/>
<text x="1004.4" y="168.6" fill="#3cb44b" font-size="10">f1</text>
<line x1="993.6415015156376" y1="175.11067643934462" x2="967.2369441580839" y2="190.8707511114759" stroke="#ff0" stroke-width="2" stroke-dasharray="6,4"/>
<text x="980.4" y="183.0" fill="#ff0" font-size="9">gap 9.3m</text>
<path d="M967.2,190.9 L961.5,194.1 L955.5,197.7 L950.0,201.8 L944.4,205.4 L938.8,208.9 L927.3,166.2 L932.9,162.7 L938.5,158.8 L943.6,153.4 L947.5,150.6 L953.2,147.5 Z" fill="#4363d855" stroke="#4363d8" stroke-width="1.2"/>
<text x="967.2" y="190.9" fill="#4363d8" font-size="10">f2</text>
<line x1="938.7937643684936" y1="208.89882683194458" x2="916.5240337433986" y2="228.29851302356144" stroke="#ff0" stroke-width="2" stroke-dasharray="6,4"/>
<text x="927.7" y="218.6" fill="#ff0" font-size="9">gap 8.5m</text>
<path d="M916.5,228.3 L910.9,231.9 L905.3,235.4 L899.5,238.5 L893.9,243.3 L888.3,246.9 L882.5,249.8 L876.9,253.2 L871.0,256.7 L865.4,260.1 L859.7,263.6 L854.1,267.0 L848.3,270.2 L842.6,273.4 L837.0,275.6 L831.3,278.8 L817.3,231.8 L823.1,228.6 L829.9,224.7 L835.6,221.4 L841.3,218.1 L847.0,214.8 L852.7,211.4 L858.3,207.8 L863.3,204.5 L868.9,201.0 L874.6,197.5 L880.3,194.3 L885.6,192.6 L890.8,187.9 L896.4,184.0 L902.0,180.6 Z" fill="#f5823155" stroke="#f58231" stroke-width="1.2"/>
<text x="916.5" y="228.3" fill="#f58231" font-size="10">f3</text>
<line x1="831.3071868592151" y1="278.79616521367825" x2="809.5250495263924" y2="291.8651134544784" stroke="#ff0" stroke-width="2" stroke-dasharray="6,4"/>
<text x="820.4" y="285.3" fill="#ff0" font-size="9">gap 7.7m</text>
<path d="M809.5,291.9 L803.4,295.4 L797.7,298.7 L791.9,301.9 L786.5,306.3 L780.7,310.3 L775.1,313.9 L769.8,318.9 L764.0,322.8 L757.8,323.5 L752.1,327.0 L746.6,331.1 L741.9,332.3 L735.9,334.5 L730.1,337.6 L724.5,341.2 L718.4,344.8 L712.6,347.9 L707.0,351.2 L701.3,354.5 L695.6,357.7 L682.0,306.9 L687.7,303.6 L693.4,300.2 L699.2,297.3 L705.5,296.3 L710.1,294.7 L715.0,288.8 L720.2,283.8 L726.4,282.2 L736.4,282.1 L741.5,276.0 L747.2,272.7 L753.6,273.0 L759.5,271.9 L764.8,266.6 L770.3,262.6 L775.0,258.4 L780.5,254.3 L786.3,251.1 L791.8,247.0 L795.3,244.1 Z" fill="#911eb455" stroke="#911eb4" stroke-width="1.2"/>
<text x="809.5" y="291.9" fill="#911eb4" font-size="10">f4</text>
<line x1="695.5508850513243" y1="357.7382343484473" x2="676.2769446529521" y2="370.86092161093245" stroke="#ff0" stroke-width="2" stroke-dasharray="6,4"/>
<text x="685.9" y="364.3" fill="#ff0" font-size="9">gap 7.0m</text>
<path d="M676.3,370.9 L670.2,372.8 L664.3,375.4 L658.6,378.7 L646.2,333.7 L651.9,330.4 L657.8,328.0 L663.9,326.3 Z" fill="#42d4f455" stroke="#42d4f4" stroke-width="1.2"/>
<text x="676.3" y="370.9" fill="#42d4f4" font-size="10">f5</text>
<line x1="658.6378804542746" y1="378.73631465954657" x2="632.2779591950735" y2="393.6596936455783" stroke="#ff0" stroke-width="2" stroke-dasharray="6,4"/>
<text x="645.5" y="386.2" fill="#ff0" font-size="9">gap 9.2m</text>
<path d="M632.3,393.7 L627.2,398.3 L621.5,401.7 L609.2,360.8 L614.8,357.3 L619.8,348.6 Z" fill="#f032e655" stroke="#f032e6" stroke-width="1.2"/>
<text x="632.3" y="393.7" fill="#f032e6" font-size="10">f6</text>
<line x1="621.5198116101145" y1="401.68829553715227" x2="590.9426991662357" y2="420.63916664852894" stroke="#ff0" stroke-width="2" stroke-dasharray="6,4"/>
<text x="606.2" y="411.2" fill="#ff0" font-size="9">gap 10.8m</text>
<path d="M590.9,420.6 L585.6,425.1 L580.2,429.1 L574.3,431.7 L568.5,434.6 L562.9,438.2 L550.3,398.5 L555.9,395.0 L561.7,392.1 L567.7,389.7 L572.9,383.0 L578.6,379.8 Z" fill="#bfef4555" stroke="#bfef45" stroke-width="1.2"/>
<text x="590.9" y="420.6" fill="#bfef45" font-size="10">f7</text>
<line x1="562.8634204312432" y1="438.18830088091585" x2="494.516731570051" y2="482.15664139689903" stroke="#ff0" stroke-width="2" stroke-dasharray="6,4"/>
<text x="528.7" y="460.2" fill="#ff0" font-size="9">gap 24.3m</text>
<path d="M494.5,482.2 L489.7,488.4 L484.6,494.0 L478.9,497.3 L473.3,500.8 L467.6,504.3 L454.6,457.7 L460.2,454.2 L465.8,450.7 L471.5,447.2 L477.2,444.0 L483.2,441.5 Z" fill="#fabed455" stroke="#fabed4" stroke-width="1.2"/>
<text x="494.5" y="482.2" fill="#fabed4" font-size="10">f8</text>
<line x1="467.64606288846926" y1="504.3223239937225" x2="449.4537233635251" y2="516.0347670031115" stroke="#ff0" stroke-width="2" stroke-dasharray="6,4"/>
<text x="458.5" y="510.2" fill="#ff0" font-size="9">gap 6.5m</text>
<path d="M449.5,516.0 L443.8,519.6 L438.2,523.3 L432.7,527.2 L426.8,530.9 L421.1,534.4 L415.5,537.9 L403.4,489.4 L409.1,486.0 L414.8,482.6 L419.4,479.8 L425.1,476.3 L430.7,472.8 L436.3,469.3 Z" fill="#46999055" stroke="#469990" stroke-width="1.2"/>
<text x="449.5" y="516.0" fill="#469990" font-size="10">f9</text>
<line x1="415.4805778230646" y1="537.8865042586335" x2="257.15071720722705" y2="620.1211033528616" stroke="#ff0" stroke-width="2" stroke-dasharray="6,4"/>
<text x="336.3" y="579.0" fill="#ff0" font-size="9">gap 54.9m</text>
<path d="M257.2,620.1 L252.0,625.1 L246.3,628.4 L240.8,632.3 L235.6,637.4 L229.7,639.9 L223.6,642.0 L218.0,645.6 L212.5,649.5 L207.0,653.7 L201.5,658.2 L195.7,661.3 L190.0,664.5 L184.5,668.3 L178.9,672.0 L172.8,673.0 L167.1,676.2 L161.3,679.3 L155.6,682.6 L149.9,685.8 L144.2,689.1 L138.6,692.5 L132.5,696.0 L126.8,698.9 L121.0,701.9 L115.3,705.5 L109.7,709.0 L104.0,712.4 L94.3,670.2 L100.0,667.0 L105.6,663.5 L111.3,660.1 L117.1,657.4 L123.0,654.7 L127.4,651.5 L133.0,648.0 L138.9,645.4 L144.7,642.4 L150.4,639.3 L156.2,636.3 L162.0,633.4 L167.4,626.9 L173.1,623.5 L178.7,620.1 L184.8,618.2 L190.9,616.6 L195.5,611.3 L201.1,607.7 L206.8,604.2 L212.5,601.0 L218.2,597.6 L223.3,592.7 L229.0,589.2 L235.0,587.1 L240.9,584.8 L245.3,575.0 Z" fill="#dcbeff55" stroke="#dcbeff" stroke-width="1.2"/>
<text x="257.2" y="620.1" fill="#dcbeff" font-size="10">f10</text>
<line x1="104.02821037844488" y1="712.3765453067989" x2="70.72133647982423" y2="725.7061087245387" stroke="#ff0" stroke-width="2" stroke-dasharray="6,4"/>
<text x="87.4" y="719.0" fill="#ff0" font-size="9">gap 11.0m</text>
<path d="M70.7,725.7 L64.9,728.7 L59.1,731.7 L51.7,683.3 L57.6,680.7 L63.4,678.1 Z" fill="#9A632455" stroke="#9A6324" stroke-width="1.2"/>
<text x="70.7" y="725.7" fill="#9A6324" font-size="10">f11</text>
</svg>