<svg xmlns="http://www.w3.org/2000/svg" width="800" height="520">
<rect width="100%" height="100%" fill="#111"/>
<text x="20" y="24" fill="#ccc" font-size="14">apparent_lane_change_geometry seg0 t45709299900</text>
<text x="20" y="42" fill="#888" font-size="10">Fallback selection for required category apparent_lane_change_geometry</text>
<line x1="83.33333333333324" y1="431.42857142857144" x2="86.89842433696418" y2="431.3038718481148" stroke="#4af" stroke-width="2"/>
<line x1="86.89842433696418" y1="431.3038718481148" x2="91.30760584886833" y2="431.30892249660735" stroke="#4af" stroke-width="2"/>
<line x1="91.30760584886833" y1="431.30892249660735" x2="98.65436852331554" y2="430.9766050974469" stroke="#4af" stroke-width="2"/>
<line x1="98.65436852331554" y1="430.9766050974469" x2="108.94153895754137" y2="430.8210836276052" stroke="#4af" stroke-width="2"/>
<line x1="108.94153895754137" y1="430.8210836276052" x2="122.16589905523254" y2="430.25697960516106" stroke="#4af" stroke-width="2"/>
<line x1="122.16589905523254" y1="430.25697960516106" x2="138.32838444231092" y2="429.45448535142185" stroke="#4af" stroke-width="2"/>
<line x1="138.32838444231092" y1="429.45448535142185" x2="157.4290463054863" y2="428.42291183643215" stroke="#4af" stroke-width="2"/>
<line x1="157.4290463054863" y1="428.42291183643215" x2="179.46761192868246" y2="427.1126514329047" stroke="#4af" stroke-width="2"/>
<line x1="179.46761192868246" y1="427.1126514329047" x2="204.44363867273069" y2="425.44318714578253" stroke="#4af" stroke-width="2"/>
<line x1="204.44363867273069" y1="425.44318714578253" x2="232.35633151199664" y2="423.26990214160264" stroke="#4af" stroke-width="2"/>
<line x1="232.35633151199664" y1="423.26990214160264" x2="263.20709649597916" y2="420.8485597787594" stroke="#4af" stroke-width="2"/>
<line x1="263.20709649597916" y1="420.8485597787594" x2="296.99245414049517" y2="417.5462345725621" stroke="#4af" stroke-width="2"/>
<line x1="296.99245414049517" y1="417.5462345725621" x2="333.7146210445147" y2="413.7661305336494" stroke="#4af" stroke-width="2"/>
<line x1="333.7146210445147" y1="413.7661305336494" x2="373.3680565497396" y2="408.5003902742783" stroke="#4af" stroke-width="2"/>
<line x1="373.3680565497396" y1="408.5003902742783" x2="417.5040470876807" y2="401.5702792263296" stroke="#4af" stroke-width="2"/>
<line x1="417.5040470876807" y1="401.5702792263296" x2="462.7476806134347" y2="387.8088664558826" stroke="#4af" stroke-width="2"/>
<line x1="462.7476806134347" y1="387.8088664558826" x2="510.914080956751" y2="373.28290574113254" stroke="#4af" stroke-width="2"/>
<line x1="510.914080956751" y1="373.28290574113254" x2="561.9460475018677" y2="356.1476406259336" stroke="#4af" stroke-width="2"/>
<line x1="561.9460475018677" y1="356.1476406259336" x2="615.912620250565" y2="338.62965534054536" stroke="#4af" stroke-width="2"/>
<line x1="615.912620250565" y1="338.62965534054536" x2="672.7479528318327" y2="318.60536229035307" stroke="#4af" stroke-width="2"/>
<line x1="672.7479528318327" y1="318.60536229035307" x2="716.6666666666665" y2="295.66260573912507" stroke="#4af" stroke-width="2"/>
<line x1="716.6666666666665" y1="295.66260573912507" x2="716.6666666666665" y2="273.44274185595793" stroke="#4af" stroke-width="2"/>
<line x1="716.6666666666665" y1="273.44274185595793" x2="716.6666666666665" y2="247.77487217977796" stroke="#4af" stroke-width="2"/>
<text x="87.33333333333324" y="427.42857142857144" fill="#4af" font-size="10">0</text>
<line x1="84.31546893696697" y1="376.3024808060109" x2="86.59576083103245" y2="376.2487440895378" stroke="#4f4" stroke-width="2"/>
<line x1="86.59576083103245" y1="376.2487440895378" x2="91.00342463135635" y2="375.9777198122423" stroke="#4f4" stroke-width="2"/>
<line x1="91.00342463135635" y1="375.9777198122423" x2="98.3514544332661" y2="375.8758955613355" stroke="#4f4" stroke-width="2"/>
<line x1="98.3514544332661" y1="375.8758955613355" x2="108.63802533499752" y2="375.6113178708576" stroke="#4f4" stroke-width="2"/>
<line x1="108.63802533499752" y1="375.6113178708576" x2="121.86247140817976" y2="375.0628529709134" stroke="#4f4" stroke-width="2"/>
<line x1="121.86247140817976" y1="375.0628529709134" x2="138.02601527161386" y2="374.45289779058515" stroke="#4f4" stroke-width="2"/>
<line x1="138.02601527161386" y1="374.45289779058515" x2="157.12769294389878" y2="373.60610208731845" stroke="#4f4" stroke-width="2"/>
<line x1="157.12769294389878" y1="373.60610208731845" x2="179.16702417668728" y2="372.435107677455" stroke="#4f4" stroke-width="2"/>
<line x1="179.16702417668728" y1="372.435107677455" x2="204.14326854583274" y2="370.80522985291066" stroke="#4f4" stroke-width="2"/>
<line x1="204.14326854583274" y1="370.80522985291066" x2="232.0571405674542" y2="368.8464405971765" stroke="#4f4" stroke-width="2"/>
<line x1="232.0571405674542" y1="368.8464405971765" x2="262.9062478689135" y2="366.12356229984" stroke="#4f4" stroke-width="2"/>
<line x1="262.9062478689135" y1="366.12356229984" x2="296.69052455547956" y2="362.6246085709563" stroke="#4f4" stroke-width="2"/>
<line x1="296.69052455547956" y1="362.6246085709563" x2="333.41207345456934" y2="358.73208813665326" stroke="#4f4" stroke-width="2"/>
<line x1="333.41207345456934" y1="358.73208813665326" x2="373.0661649468474" y2="353.58567330076346" stroke="#4f4" stroke-width="2"/>
<line x1="373.0661649468474" y1="353.58567330076346" x2="415.791778540672" y2="346.34852304945906" stroke="#4f4" stroke-width="2"/>
<line x1="415.791778540672" y1="346.34852304945906" x2="461.0542169775583" y2="333.1935806947049" stroke="#4f4" stroke-width="2"/>
<line x1="461.0542169775583" y1="333.1935806947049" x2="509.21633792122134" y2="318.52960660311135" stroke="#4f4" stroke-width="2"/>
<line x1="509.21633792122134" y1="318.52960660311135" x2="560.2736393359405" y2="302.21140724222914" stroke="#4f4" stroke-width="2"/>
<line x1="560.2736393359405" y1="302.21140724222914" x2="614.2031405235919" y2="283.4978403941485" stroke="#4f4" stroke-width="2"/>
<line x1="614.2031405235919" y1="283.4978403941485" x2="671.0387451208844" y2="263.4823200348115" stroke="#4f4" stroke-width="2"/>
<line x1="671.0387451208844" y1="263.4823200348115" x2="716.6666666666665" y2="241.60657479013412" stroke="#4f4" stroke-width="2"/>
<line x1="716.6666666666665" y1="241.60657479013412" x2="716.6666666666665" y2="217.07267893767965" stroke="#4f4" stroke-width="2"/>
<line x1="716.6666666666665" y1="217.07267893767965" x2="716.6666666666665" y2="191.7077081969627" stroke="#4f4" stroke-width="2"/>
<text x="88.31546893696697" y="372.3024808060109" fill="#4f4" font-size="10">1</text>
<line x1="84.93513154100948" y1="320.3666797498041" x2="86.2881929576948" y2="320.3015015936171" stroke="#fa4" stroke-width="2"/>
<line x1="86.2881929576948" y1="320.3015015936171" x2="90.69689701833889" y2="320.21970285462805" stroke="#fa4" stroke-width="2"/>
<line x1="90.69689701833889" y1="320.21970285462805" x2="98.04438959288865" y2="320.02015581793444" stroke="#fa4" stroke-width="2"/>
<line x1="98.04438959288865" y1="320.02015581793444" x2="108.33092316515037" y2="319.7487878184735" stroke="#fa4" stroke-width="2"/>
<line x1="108.33092316515037" y1="319.7487878184735" x2="121.55660860469727" y2="319.4257662647232" stroke="#fa4" stroke-width="2"/>
<line x1="121.55660860469727" y1="319.4257662647232" x2="137.72096791250706" y2="318.9641421299507" stroke="#fa4" stroke-width="2"/>
<line x1="137.72096791250706" y1="318.9641421299507" x2="156.82332895999795" y2="318.2416538127351" stroke="#fa4" stroke-width="2"/>
<line x1="156.82332895999795" y1="318.2416538127351" x2="178.86301682150085" y2="317.1355309154776" stroke="#fa4" stroke-width="2"/>
<line x1="178.86301682150085" y1="317.1355309154776" x2="203.83961897315976" y2="315.5707344819623" stroke="#fa4" stroke-width="2"/>
<line x1="203.83961897315976" y1="315.5707344819623" x2="231.75281704809254" y2="313.48935290729145" stroke="#fa4" stroke-width="2"/>
<line x1="231.75281704809254" y1="313.48935290729145" x2="262.60262578928416" y2="310.8940679713175" stroke="#fa4" stroke-width="2"/>
<line x1="262.60262578928416" y1="310.8940679713175" x2="296.3884867115055" y2="307.68329003730526" stroke="#fa4" stroke-width="2"/>
<line x1="296.3884867115055" y1="307.68329003730526" x2="333.10631329256034" y2="303.11367213018593" stroke="#fa4" stroke-width="2"/>
<line x1="333.10631329256034" y1="303.11367213018593" x2="372.7606761023701" y2="298.0166105234945" stroke="#fa4" stroke-width="2"/>
<line x1="372.7606761023701" y1="298.0166105234945" x2="414.07367896161503" y2="290.9387123582504" stroke="#fa4" stroke-width="2"/>
<line x1="414.07367896161503" y1="290.9387123582504" x2="459.32572190082556" y2="277.44850855224985" stroke="#fa4" stroke-width="2"/>
<line x1="459.32572190082556" y1="277.44850855224985" x2="507.4894284460978" y2="262.8356711270478" stroke="#fa4" stroke-width="2"/>
<line x1="507.4894284460978" y1="262.8356711270478" x2="558.5226799193725" y2="245.74184576706068" stroke="#fa4" stroke-width="2"/>
<line x1="558.5226799193725" y1="245.74184576706068" x2="612.4547391593658" y2="227.1107777436871" stroke="#fa4" stroke-width="2"/>
<line x1="612.4547391593658" y1="227.1107777436871" x2="669.2835929327176" y2="206.8775389929777" stroke="#fa4" stroke-width="2"/>
<line x1="669.2835929327176" y1="206.8775389929777" x2="716.6666666666665" y2="184.76566285775107" stroke="#fa4" stroke-width="2"/>
<line x1="716.6666666666665" y1="184.76566285775107" x2="716.6666666666665" y2="161.26427126652516" stroke="#fa4" stroke-width="2"/>
<line x1="716.6666666666665" y1="161.26427126652516" x2="716.6666666666665" y2="134.66191967139315" stroke="#fa4" stroke-width="2"/>
<text x="88.93513154100948" y="316.3666797498041" fill="#fa4" font-size="10">2</text>
<line x1="84.93513154100948" y1="270.98457102239" x2="86.01815940577963" y2="271.1818310406293" stroke="#f4a" stroke-width="2"/>
<line x1="86.01815940577963" y1="271.1818310406293" x2="90.42472801796863" y2="270.7115897400959" stroke="#f4a" stroke-width="2"/>
<line x1="90.42472801796863" y1="270.7115897400959" x2="97.77425291000957" y2="270.88172552589265" stroke="#f4a" stroke-width="2"/>
<line x1="97.77425291000957" y1="270.88172552589265" x2="108.0613731598158" y2="270.71707540463683" stroke="#f4a" stroke-width="2"/>
<line x1="108.0613731598158" y1="270.71707540463683" x2="121.28599389948631" y2="270.2003827059808" stroke="#f4a" stroke-width="2"/>
<line x1="121.28599389948631" y1="270.2003827059808" x2="137.4514859463371" y2="269.944806183127" stroke="#f4a" stroke-width="2"/>
<line x1="137.4514859463371" y1="269.944806183127" x2="156.5550986673799" y2="269.44999991528545" stroke="#f4a" stroke-width="2"/>
<line x1="156.5550986673799" y1="269.44999991528545" x2="178.59354040288872" y2="268.1172040810719" stroke="#f4a" stroke-width="2"/>
<line x1="178.59354040288872" y1="268.1172040810719" x2="203.57427424971422" y2="267.3039716808887" stroke="#f4a" stroke-width="2"/>
<line x1="203.57427424971422" y1="267.3039716808887" x2="231.48959809983995" y2="265.6092730809829" stroke="#f4a" stroke-width="2"/>
<line x1="231.48959809983995" y1="265.6092730809829" x2="262.3419901032689" y2="263.4838889745397" stroke="#f4a" stroke-width="2"/>
<line x1="262.3419901032689" y1="263.4838889745397" x2="296.12594971660576" y2="259.92725895899076" stroke="#f4a" stroke-width="2"/>
<line x1="296.12594971660576" y1="259.92725895899076" x2="332.8460349811493" y2="255.76850032499433" stroke="#f4a" stroke-width="2"/>
<line x1="332.8460349811493" y1="255.76850032499433" x2="372.4977684583526" y2="250.19315759173554" stroke="#f4a" stroke-width="2"/>
<line x1="372.4977684583526" y1="250.19315759173554" x2="412.58288897076915" y2="242.85978132303404" stroke="#f4a" stroke-width="2"/>
<line x1="412.58288897076915" y1="242.85978132303404" x2="457.8286041929326" y2="229.1655045936938" stroke="#f4a" stroke-width="2"/>
<line x1="457.8286041929326" y1="229.1655045936938" x2="505.9720321664842" y2="213.89867025595646" stroke="#f4a" stroke-width="2"/>
<line x1="505.9720321664842" y1="213.89867025595646" x2="557.0071971951155" y2="196.86655828053057" stroke="#f4a" stroke-width="2"/>
<line x1="557.0071971951155" y1="196.86655828053057" x2="610.972295627448" y2="179.30102534909355" stroke="#f4a" stroke-width="2"/>
<line x1="610.972295627448" y1="179.30102534909355" x2="667.8053762727685" y2="159.20410592378732" stroke="#f4a" stroke-width="2"/>
<line x1="667.8053762727685" y1="159.20410592378732" x2="716.6666666666665" y2="135.45329318021072" stroke="#f4a" stroke-width="2"/>
<line x1="716.6666666666665" y1="135.45329318021072" x2="716.6666666666665" y2="111.87468160621995" stroke="#f4a" stroke-width="2"/>
<line x1="716.6666666666665" y1="111.87468160621995" x2="716.6666666666665" y2="88.57142857142861" stroke="#f4a" stroke-width="2"/>
<text x="88.93513154100948" y="266.98457102239" fill="#f4a" font-size="10">3</text>
<text x="20" y="512" fill="#666" font-size="10">s → | d ↑ | assessment prototype | not ground-truth alignment</text>
</svg>